<svg width="200" height="200" viewBox="0 0 200 200" fill="none" xmlns="http://www.w3.org/2000/svg">
<rect width="200" height="200" rx="2" fill="#E7E7E7"/>
<path fill-rule="evenodd" clip-rule="evenodd" d="M109.6 90.4H90.4V109.6H109.6V90.4ZM90.4 88C89.0745 88 88 89.0745 88 90.4V109.6C88 110.925 89.0745 112 90.4 112H109.6C110.925 112 112 110.925 112 109.6V90.4C112 89.0745 110.925 88 109.6 88H90.4Z" fill="#A2A2A2"/>
<path fill-rule="evenodd" clip-rule="evenodd" d="M95.2 97C96.1941 97 97 96.1941 97 95.2C97 94.2059 96.1941 93.4 95.2 93.4C94.2059 93.4 93.4 94.2059 93.4 95.2C93.4 96.1941 94.2059 97 95.2 97ZM95.2 98.8C97.1882 98.8 98.8 97.1882 98.8 95.2C98.8 93.2118 97.1882 91.6 95.2 91.6C93.2118 91.6 91.6 93.2118 91.6 95.2C91.6 97.1882 93.2118 98.8 95.2 98.8Z" fill="#A2A2A2"/>
<path fill-rule="evenodd" clip-rule="evenodd" d="M103.051 98.5515C103.52 98.0828 104.28 98.0828 104.749 98.5515L108.649 102.451C109.117 102.92 109.117 103.68 108.649 104.149C108.18 104.617 107.42 104.617 106.951 104.149L103.9 101.097L99.9485 105.049C99.4799 105.517 98.7201 105.517 98.2515 105.049L96.7 103.497L93.3485 106.849C92.8799 107.317 92.1201 107.317 91.6515 106.849C91.1828 106.38 91.1828 105.62 91.6515 105.151L95.8515 100.951C96.3201 100.483 97.0799 100.483 97.5485 100.951L99.1 102.503L103.051 98.5515Z" fill="#A2A2A2"/>
</svg>
