<svg width="240" height="135" viewBox="0 0 240 135" fill="none" xmlns="http://www.w3.org/2000/svg">
<rect width="240" height="135" rx="2" fill="#E7E7E7"/>
<path fill-rule="evenodd" clip-rule="evenodd" d="M129.6 58.4H110.4V77.6H129.6V58.4ZM110.4 56C109.075 56 108 57.0745 108 58.4V77.6C108 78.9255 109.075 80 110.4 80H129.6C130.925 80 132 78.9255 132 77.6V58.4C132 57.0745 130.925 56 129.6 56H110.4Z" fill="#A2A2A2"/>
<path fill-rule="evenodd" clip-rule="evenodd" d="M115.2 65C116.194 65 117 64.1941 117 63.2C117 62.2059 116.194 61.4 115.2 61.4C114.206 61.4 113.4 62.2059 113.4 63.2C113.4 64.1941 114.206 65 115.2 65ZM115.2 66.8C117.188 66.8 118.8 65.1882 118.8 63.2C118.8 61.2118 117.188 59.6 115.2 59.6C113.212 59.6 111.6 61.2118 111.6 63.2C111.6 65.1882 113.212 66.8 115.2 66.8Z" fill="#A2A2A2"/>
<path fill-rule="evenodd" clip-rule="evenodd" d="M123.051 66.5515C123.52 66.0828 124.28 66.0828 124.749 66.5515L128.649 70.4515C129.117 70.9201 129.117 71.6799 128.649 72.1485C128.18 72.6172 127.42 72.6172 126.951 72.1485L123.9 69.0971L119.949 73.0485C119.48 73.5172 118.72 73.5172 118.251 73.0485L116.7 71.4971L113.349 74.8485C112.88 75.3172 112.12 75.3172 111.651 74.8485C111.183 74.3799 111.183 73.6201 111.651 73.1515L115.851 68.9515C116.32 68.4828 117.08 68.4828 117.549 68.9515L119.1 70.5029L123.051 66.5515Z" fill="#A2A2A2"/>
</svg>
