<svg width="81" height="32" viewBox="0 0 81 32" fill="none" xmlns="http://www.w3.org/2000/svg">
<circle cx="12" cy="16" r="12" fill="black"/>
<path d="M31.3 12.008H31.84C32.248 12.008 32.612 11.944 32.932 11.816C33.252 11.688 33.52 11.512 33.736 11.288C33.96 11.064 34.128 10.8 34.24 10.496C34.36 10.184 34.42 9.844 34.42 9.476C34.42 9.116 34.36 8.78 34.24 8.468C34.12 8.156 33.948 7.888 33.724 7.664C33.508 7.44 33.24 7.264 32.92 7.136C32.6 7.008 32.24 6.944 31.84 6.944H31.3V12.008ZM28.948 4.952H32.428C33.044 4.952 33.62 5.076 34.156 5.324C34.7 5.572 35.172 5.904 35.572 6.32C35.98 6.728 36.3 7.208 36.532 7.76C36.764 8.304 36.88 8.876 36.88 9.476C36.88 10.068 36.764 10.64 36.532 11.192C36.308 11.736 35.992 12.216 35.584 12.632C35.184 13.048 34.712 13.38 34.168 13.628C33.632 13.876 33.052 14 32.428 14H28.948V4.952ZM40.7336 4.952V9.872C40.7336 10.136 40.7416 10.408 40.7576 10.688C40.7816 10.96 40.8416 11.208 40.9376 11.432C41.0416 11.656 41.2016 11.84 41.4176 11.984C41.6336 12.12 41.9376 12.188 42.3296 12.188C42.7216 12.188 43.0216 12.12 43.2296 11.984C43.4456 11.84 43.6056 11.656 43.7096 11.432C43.8136 11.208 43.8736 10.96 43.8896 10.688C43.9136 10.408 43.9256 10.136 43.9256 9.872V4.952H46.2656V10.196C46.2656 11.604 45.9416 12.632 45.2936 13.28C44.6536 13.928 43.6656 14.252 42.3296 14.252C40.9936 14.252 40.0016 13.928 39.3536 13.28C38.7056 12.632 38.3816 11.604 38.3816 10.196V4.952H40.7336ZM47.7588 14L49.2948 4.952H51.6228L53.4348 9.776L55.2348 4.952H57.5628L59.0988 14H56.7588L55.9788 8.792L53.8428 14H52.9068L50.8788 8.792L50.0988 14H47.7588ZM60.1806 14L61.7166 4.952H64.0446L65.8566 9.776L67.6566 4.952H69.9846L71.5206 14H69.1806L68.4006 8.792L66.2646 14H65.3286L63.3006 8.792L62.5206 14H60.1806ZM75.1945 9.656L71.8945 4.952H74.7025L76.3825 7.424L78.0505 4.952H80.8585L77.5465 9.656V14H75.1945V9.656ZM31.3 18.952V26.008H34.12V28H28.948V18.952H31.3ZM37.2109 23.476C37.2109 23.836 37.2789 24.168 37.4149 24.472C37.5509 24.776 37.7349 25.04 37.9669 25.264C38.1989 25.488 38.4669 25.664 38.7709 25.792C39.0829 25.912 39.4109 25.972 39.7549 25.972C40.0989 25.972 40.4229 25.912 40.7269 25.792C41.0389 25.664 41.3109 25.488 41.5429 25.264C41.7829 25.04 41.9709 24.776 42.1069 24.472C42.2429 24.168 42.3109 23.836 42.3109 23.476C42.3109 23.116 42.2429 22.784 42.1069 22.48C41.9709 22.176 41.7829 21.912 41.5429 21.688C41.3109 21.464 41.0389 21.292 40.7269 21.172C40.4229 21.044 40.0989 20.98 39.7549 20.98C39.4109 20.98 39.0829 21.044 38.7709 21.172C38.4669 21.292 38.1989 21.464 37.9669 21.688C37.7349 21.912 37.5509 22.176 37.4149 22.48C37.2789 22.784 37.2109 23.116 37.2109 23.476ZM34.7509 23.476C34.7509 22.804 34.8749 22.18 35.1229 21.604C35.3709 21.02 35.7149 20.512 36.1549 20.08C36.5949 19.648 37.1189 19.312 37.7269 19.072C38.3429 18.824 39.0189 18.7 39.7549 18.7C40.4829 18.7 41.1549 18.824 41.7709 19.072C42.3869 19.312 42.9149 19.648 43.3549 20.08C43.8029 20.512 44.1509 21.02 44.3989 21.604C44.6469 22.18 44.7709 22.804 44.7709 23.476C44.7709 24.148 44.6469 24.776 44.3989 25.36C44.1509 25.936 43.8029 26.44 43.3549 26.872C42.9149 27.304 42.3869 27.644 41.7709 27.892C41.1549 28.132 40.4829 28.252 39.7549 28.252C39.0189 28.252 38.3429 28.132 37.7269 27.892C37.1189 27.644 36.5949 27.304 36.1549 26.872C35.7149 26.44 35.3709 25.936 35.1229 25.36C34.8749 24.776 34.7509 24.148 34.7509 23.476ZM50.6606 22.936H55.3286C55.3286 23.416 55.3086 23.852 55.2686 24.244C55.2286 24.636 55.1486 25 55.0286 25.336C54.8606 25.808 54.6326 26.228 54.3446 26.596C54.0566 26.956 53.7166 27.26 53.3246 27.508C52.9406 27.748 52.5166 27.932 52.0526 28.06C51.5886 28.188 51.1006 28.252 50.5886 28.252C49.8846 28.252 49.2406 28.136 48.6566 27.904C48.0806 27.672 47.5846 27.348 47.1686 26.932C46.7526 26.508 46.4286 26.004 46.1966 25.42C45.9646 24.828 45.8486 24.176 45.8486 23.464C45.8486 22.76 45.9606 22.116 46.1846 21.532C46.4166 20.94 46.7406 20.436 47.1566 20.02C47.5806 19.604 48.0886 19.28 48.6806 19.048C49.2726 18.816 49.9326 18.7 50.6606 18.7C51.6046 18.7 52.4326 18.904 53.1446 19.312C53.8566 19.72 54.4206 20.352 54.8366 21.208L52.6046 22.132C52.3966 21.636 52.1246 21.28 51.7886 21.064C51.4606 20.848 51.0846 20.74 50.6606 20.74C50.3086 20.74 49.9886 20.808 49.7006 20.944C49.4126 21.072 49.1646 21.26 48.9566 21.508C48.7566 21.748 48.5966 22.04 48.4766 22.384C48.3646 22.728 48.3086 23.112 48.3086 23.536C48.3086 23.92 48.3566 24.276 48.4526 24.604C48.5566 24.932 48.7086 25.216 48.9086 25.456C49.1086 25.696 49.3566 25.884 49.6526 26.02C49.9486 26.148 50.2926 26.212 50.6846 26.212C50.9166 26.212 51.1406 26.188 51.3566 26.14C51.5726 26.084 51.7646 26 51.9326 25.888C52.1086 25.768 52.2526 25.616 52.3646 25.432C52.4766 25.248 52.5526 25.024 52.5926 24.76H50.6606V22.936ZM58.8672 23.476C58.8672 23.836 58.9352 24.168 59.0712 24.472C59.2072 24.776 59.3912 25.04 59.6232 25.264C59.8552 25.488 60.1232 25.664 60.4272 25.792C60.7392 25.912 61.0672 25.972 61.4112 25.972C61.7552 25.972 62.0792 25.912 62.3832 25.792C62.6952 25.664 62.9672 25.488 63.1992 25.264C63.4392 25.04 63.6272 24.776 63.7632 24.472C63.8992 24.168 63.9672 23.836 63.9672 23.476C63.9672 23.116 63.8992 22.784 63.7632 22.48C63.6272 22.176 63.4392 21.912 63.1992 21.688C62.9672 21.464 62.6952 21.292 62.3832 21.172C62.0792 21.044 61.7552 20.98 61.4112 20.98C61.0672 20.98 60.7392 21.044 60.4272 21.172C60.1232 21.292 59.8552 21.464 59.6232 21.688C59.3912 21.912 59.2072 22.176 59.0712 22.48C58.9352 22.784 58.8672 23.116 58.8672 23.476ZM56.4072 23.476C56.4072 22.804 56.5312 22.18 56.7792 21.604C57.0272 21.02 57.3712 20.512 57.8112 20.08C58.2512 19.648 58.7752 19.312 59.3832 19.072C59.9992 18.824 60.6752 18.7 61.4112 18.7C62.1392 18.7 62.8112 18.824 63.4272 19.072C64.0432 19.312 64.5712 19.648 65.0112 20.08C65.4592 20.512 65.8072 21.02 66.0552 21.604C66.3032 22.18 66.4272 22.804 66.4272 23.476C66.4272 24.148 66.3032 24.776 66.0552 25.36C65.8072 25.936 65.4592 26.44 65.0112 26.872C64.5712 27.304 64.0432 27.644 63.4272 27.892C62.8112 28.132 62.1392 28.252 61.4112 28.252C60.6752 28.252 59.9992 28.132 59.3832 27.892C58.7752 27.644 58.2512 27.304 57.8112 26.872C57.3712 26.44 57.0272 25.936 56.7792 25.36C56.5312 24.776 56.4072 24.148 56.4072 23.476Z" fill="black"/>
</svg>
